<mxfile host="app.diagrams.net" modified="2023-09-02T23:41:57.677Z" agent="Mozilla/5.0 (Windows NT 10.0; Win64; x64) AppleWebKit/537.36 (KHTML, like Gecko) Chrome/116.0.0.0 Safari/537.36" etag="SZ94Y88bVNBP8nl0JcIg" version="21.7.2" type="github">
  <diagram name="Página-1" id="EyxW2GNLYkMg2zBdvGeG">
    <mxGraphModel dx="1195" dy="652" grid="1" gridSize="10" guides="1" tooltips="1" connect="1" arrows="1" fold="1" page="1" pageScale="1" pageWidth="827" pageHeight="1169" math="0" shadow="0">
      <root>
        <mxCell id="0" />
        <mxCell id="1" parent="0" />
        <mxCell id="OQbU3b0BULYzuUBNUwdf-4" style="edgeStyle=orthogonalEdgeStyle;rounded=0;orthogonalLoop=1;jettySize=auto;html=1;entryX=0;entryY=0.5;entryDx=0;entryDy=0;" parent="1" source="OQbU3b0BULYzuUBNUwdf-1" target="OQbU3b0BULYzuUBNUwdf-2" edge="1">
          <mxGeometry relative="1" as="geometry" />
        </mxCell>
        <mxCell id="OQbU3b0BULYzuUBNUwdf-1" value="Docente" style="shape=umlActor;verticalLabelPosition=bottom;verticalAlign=top;html=1;" parent="1" vertex="1">
          <mxGeometry x="80" y="160" width="30" height="60" as="geometry" />
        </mxCell>
        <mxCell id="OQbU3b0BULYzuUBNUwdf-7" style="edgeStyle=orthogonalEdgeStyle;rounded=0;orthogonalLoop=1;jettySize=auto;html=1;entryX=0.5;entryY=0;entryDx=0;entryDy=0;entryPerimeter=0;" parent="1" source="OQbU3b0BULYzuUBNUwdf-2" target="OQbU3b0BULYzuUBNUwdf-6" edge="1">
          <mxGeometry relative="1" as="geometry" />
        </mxCell>
        <mxCell id="OQbU3b0BULYzuUBNUwdf-2" value="CAUAE" style="ellipse;whiteSpace=wrap;html=1;" parent="1" vertex="1">
          <mxGeometry x="320" y="155" width="140" height="70" as="geometry" />
        </mxCell>
        <mxCell id="OQbU3b0BULYzuUBNUwdf-5" value="emite protocolo&amp;nbsp; eletrônico" style="text;html=1;align=center;verticalAlign=middle;resizable=0;points=[];autosize=1;strokeColor=none;fillColor=none;" parent="1" vertex="1">
          <mxGeometry x="130" y="170" width="160" height="30" as="geometry" />
        </mxCell>
        <mxCell id="OQbU3b0BULYzuUBNUwdf-9" style="edgeStyle=orthogonalEdgeStyle;rounded=0;orthogonalLoop=1;jettySize=auto;html=1;entryX=0.5;entryY=0;entryDx=0;entryDy=0;" parent="1" source="OQbU3b0BULYzuUBNUwdf-6" target="OQbU3b0BULYzuUBNUwdf-8" edge="1">
          <mxGeometry relative="1" as="geometry" />
        </mxCell>
        <mxCell id="OQbU3b0BULYzuUBNUwdf-6" value="Parecista (Docente)" style="shape=umlActor;verticalLabelPosition=bottom;verticalAlign=top;html=1;" parent="1" vertex="1">
          <mxGeometry x="375" y="280" width="30" height="60" as="geometry" />
        </mxCell>
        <mxCell id="OQbU3b0BULYzuUBNUwdf-11" style="edgeStyle=orthogonalEdgeStyle;rounded=0;orthogonalLoop=1;jettySize=auto;html=1;entryX=0.5;entryY=0;entryDx=0;entryDy=0;" parent="1" source="OQbU3b0BULYzuUBNUwdf-8" target="OQbU3b0BULYzuUBNUwdf-10" edge="1">
          <mxGeometry relative="1" as="geometry" />
        </mxCell>
        <mxCell id="OQbU3b0BULYzuUBNUwdf-8" value="Presidente da CAUAE (Docente)" style="ellipse;whiteSpace=wrap;html=1;" parent="1" vertex="1">
          <mxGeometry x="320" y="430" width="140" height="70" as="geometry" />
        </mxCell>
        <mxCell id="OQbU3b0BULYzuUBNUwdf-10" value="Secretária da CAUAE" style="ellipse;whiteSpace=wrap;html=1;" parent="1" vertex="1">
          <mxGeometry x="320" y="570" width="140" height="70" as="geometry" />
        </mxCell>
        <mxCell id="OQbU3b0BULYzuUBNUwdf-12" value="envia para o paracista" style="text;html=1;align=center;verticalAlign=middle;resizable=0;points=[];autosize=1;strokeColor=none;fillColor=none;" parent="1" vertex="1">
          <mxGeometry x="390" y="240" width="140" height="30" as="geometry" />
        </mxCell>
        <mxCell id="OQbU3b0BULYzuUBNUwdf-13" value="emite o parecer ao presidente" style="text;html=1;align=center;verticalAlign=middle;resizable=0;points=[];autosize=1;strokeColor=none;fillColor=none;" parent="1" vertex="1">
          <mxGeometry x="390" y="370" width="180" height="30" as="geometry" />
        </mxCell>
        <mxCell id="OQbU3b0BULYzuUBNUwdf-14" value="presidente aprova ou reprovar" style="text;html=1;align=center;verticalAlign=middle;resizable=0;points=[];autosize=1;strokeColor=none;fillColor=none;" parent="1" vertex="1">
          <mxGeometry x="390" y="520" width="180" height="30" as="geometry" />
        </mxCell>
        <mxCell id="OQbU3b0BULYzuUBNUwdf-15" value="emite certificado" style="text;html=1;align=center;verticalAlign=middle;resizable=0;points=[];autosize=1;strokeColor=none;fillColor=none;" parent="1" vertex="1">
          <mxGeometry x="460" y="590" width="110" height="30" as="geometry" />
        </mxCell>
      </root>
    </mxGraphModel>
  </diagram>
</mxfile>
